<?xml version="1.0" encoding="UTF-8"?>
<svg version="1.1" xmlns="http://www.w3.org/2000/svg" width="356" height="307">
<path d="M0 0 C1.85395386 0.00918457 1.85395386 0.00918457 3.74536133 0.01855469 C12.53680147 0.16938111 20.0196255 1.00462521 28.1875 4.4375 C29.01507813 4.74945313 29.84265625 5.06140625 30.6953125 5.3828125 C36.33951195 7.65962516 41.28472928 10.85955887 46.1875 14.4375 C47.115625 15.09685547 47.115625 15.09685547 48.0625 15.76953125 C56.68223545 22.44597813 62.03973351 32.88929769 64.1875 43.4375 C65.80076333 57.77392262 62.44000322 72.35935486 60.1875 86.4375 C45.3375 86.4375 30.4875 86.4375 15.1875 86.4375 C13.6525905 83.367681 14.84400879 81.11001843 15.625 77.8125 C17.90738774 67.28373496 19.61498327 54.25038976 14.1875 44.4375 C10.91678593 40.28280915 8.22984485 38.79764648 3.1875 37.4375 C-8.52810684 36.84411212 -18.74240898 40.76774035 -28.09375 47.6171875 C-34.30394548 54.19434908 -35.09024147 61.88182476 -36.625 70.5 C-39.835144 87.28175061 -44.98572127 99.82320285 -57.8125 111.4375 C-58.4725 111.4375 -59.1325 111.4375 -59.8125 111.4375 C-59.8125 112.0975 -59.8125 112.7575 -59.8125 113.4375 C-61.82381452 114.9658545 -63.8090581 116.33860169 -65.9375 117.6875 C-66.56841553 118.08791504 -67.19933105 118.48833008 -67.84936523 118.90087891 C-74.16597159 122.80671642 -80.71994163 126.16410486 -87.8125 128.4375 C-88.65176025 128.70892822 -89.49102051 128.98035645 -90.35571289 129.26000977 C-101.16094619 132.25300039 -112.0052647 131.77081756 -123.125 131.625 C-125.13735974 131.60992068 -127.14973045 131.59623804 -129.16210938 131.58398438 C-134.04584849 131.55124827 -138.92905023 131.49964662 -143.8125 131.4375 C-143.98990723 132.84745239 -143.98990723 132.84745239 -144.17089844 134.28588867 C-145.23048735 142.49667002 -146.49550924 150.61820974 -148.0625 158.75 C-149.57458847 166.72713238 -151.04778694 174.70776613 -152.4375 182.70703125 C-152.57307312 183.48563004 -152.70864624 184.26422882 -152.84832764 185.06642151 C-153.38787616 188.16809998 -153.92677289 191.26986165 -154.45812988 194.37295532 C-154.82810598 196.53308651 -155.20273768 198.69236621 -155.578125 200.8515625 C-155.79243164 202.0988916 -156.00673828 203.3462207 -156.22753906 204.63134766 C-156.8125 207.4375 -156.8125 207.4375 -157.8125 208.4375 C-162.13867411 208.6808957 -166.47070955 208.66606889 -170.80297852 208.67773438 C-172.97386818 208.68738385 -175.14378821 208.71836558 -177.31445312 208.75 C-178.70311939 208.7565357 -180.09179242 208.76178394 -181.48046875 208.765625 C-182.74141357 208.7749707 -184.0023584 208.78431641 -185.30151367 208.79394531 C-189.77530201 208.3397536 -193.1038487 206.93555009 -196.4921875 203.96484375 C-200.75782746 198.29126381 -200.34424834 192.85689235 -199.52111816 186.01580811 C-199.12808356 183.55956308 -198.67790219 181.12142193 -198.203125 178.6796875 C-198.03635757 177.78197128 -197.86959015 176.88425507 -197.69776917 175.95933533 C-197.16060502 173.07550797 -196.61154055 170.19408728 -196.0625 167.3125 C-195.50242999 164.32017483 -194.94560986 161.32725824 -194.38923645 158.33424377 C-194.02476524 156.37365082 -193.65936709 154.41322995 -193.29301453 152.45298767 C-191.9778231 145.39862704 -190.75926157 138.33588613 -189.625 131.25 C-188.28406478 122.96731313 -186.75575998 114.73059632 -185.125 106.5 C-184.91012939 105.40727783 -184.69525879 104.31455566 -184.47387695 103.1887207 C-184.27238037 102.18929443 -184.07088379 101.18986816 -183.86328125 100.16015625 C-183.68450439 99.27078369 -183.50572754 98.38141113 -183.3215332 97.46508789 C-182.8125 95.4375 -182.8125 95.4375 -181.8125 94.4375 C-179.36548452 94.33374853 -176.94578078 94.29388226 -174.49804688 94.2956543 C-173.73207184 94.29217987 -172.9660968 94.28870544 -172.1769104 94.28512573 C-170.50667553 94.27775358 -168.83643077 94.27241601 -167.16618347 94.26883507 C-164.51716145 94.2616807 -161.86832589 94.24601872 -159.21936035 94.22749329 C-151.68500442 94.17499858 -144.15074549 94.12711206 -136.61621094 94.11157227 C-132.01126495 94.10145089 -127.40678036 94.07201282 -122.80201721 94.03025246 C-121.05110679 94.01798726 -119.30013102 94.01281297 -117.54917908 94.01505089 C-106.97813009 94.02522968 -98.9694526 93.45290387 -89.9375 87.5625 C-85.79839079 83.42339079 -84.43400898 78.61485127 -83.453125 72.96484375 C-83.22367187 71.73443359 -82.99421875 70.50402344 -82.7578125 69.23632812 C-82.29952694 66.69129847 -81.85136216 64.14442253 -81.4140625 61.59570312 C-78.76826352 47.61803435 -72.72187435 37.48971218 -62.8125 27.4375 C-62.27238281 26.82519531 -61.73226562 26.21289062 -61.17578125 25.58203125 C-53.62298891 17.26825227 -43.13570222 11.86112056 -33.125 7.0625 C-32.46129395 6.74095947 -31.79758789 6.41941895 -31.11376953 6.08813477 C-20.87598728 1.359064 -11.23795817 -0.09453272 0 0 Z " fill="#020202" transform="translate(257.8125,44.5625)"/>
<path d="M0 0 C-1.72791212 11.68881728 -1.72791212 11.68881728 -2.80078125 17.15625 C-6.07288532 32.48533472 -6.07288532 32.48533472 -3.5625 47.5625 C2.75341152 53.57031827 10.66707211 56.90796581 19.375 57.375 C24.55412385 57.23407146 28.55424076 55.5708442 33 53 C33.60714844 52.65710938 34.21429688 52.31421875 34.83984375 51.9609375 C39.28089067 48.83911313 41.66535921 44.48485202 44.125 39.75 C44.43767822 39.16186523 44.75035645 38.57373047 45.07250977 37.96777344 C48.98600244 29.93035229 50.54563043 21.83573044 53 13 C67.19 13 81.38 13 96 13 C93.77929353 37.4277712 88.27198784 59.47686412 70 77 C52.54221062 91.30646318 29.25534425 96.49596419 7 95 C-12.21585224 92.90582756 -28.34101853 87.27233815 -42 73 C-51.93144306 60.5177442 -53.11431503 47.40073442 -51.7265625 31.95703125 C-51.3125 29.5625 -51.3125 29.5625 -50 26 C-46.49158747 24.22713197 -42.71133462 23.3162135 -38.9375 22.25 C-26.31002972 18.37227291 -13.62819665 11.68460684 -4.24609375 2.22265625 C-2 0 -2 0 0 0 Z " fill="#030303" transform="translate(213,159)"/>
<path d="M0 0 C10.38052117 -0.09338753 20.7609396 -0.16410928 31.14179802 -0.20724869 C35.9639882 -0.22797139 40.78588738 -0.2560026 45.60791016 -0.30175781 C50.27639682 -0.34577023 54.94460667 -0.36925166 59.61328506 -0.37950897 C61.37916537 -0.38680241 63.14503351 -0.40103869 64.9107933 -0.42292023 C80.54899405 -0.60869875 96.34878971 0.63091631 110 9 C110 9.66 110 10.32 110 11 C108.3203125 12.5078125 108.3203125 12.5078125 106.125 14.125 C105.40570313 14.66382813 104.68640625 15.20265625 103.9453125 15.7578125 C102 17 102 17 100 17 C100 17.66 100 18.32 100 19 C98.87474845 20.02649277 97.69717355 20.99587696 96.5 21.9375 C90.3290218 27.16416481 85.53429802 33.73976219 82 41 C81.24501221 40.79141357 80.49002441 40.58282715 79.7121582 40.36791992 C70.83260223 38.0957488 62.321335 37.46637263 53.1875 37.3125 C51.80140244 37.27921547 50.4153335 37.24471622 49.02929688 37.20898438 C45.68627982 37.12744737 42.34349405 37.05799448 39 37 C38.846521 38.44282349 38.846521 38.44282349 38.68994141 39.91479492 C37.58587687 50.03633872 35.7480219 59.96470011 33.76489258 69.94873047 C33.55243896 71.01881348 33.33998535 72.08889648 33.12109375 73.19140625 C32.9295874 74.14217041 32.73808105 75.09293457 32.54077148 76.07250977 C31.93246952 79.36557922 31.47358922 82.68487543 31 86 C15.82 86 0.64 86 -15 86 C-12.85415172 71.61486894 -10.56795452 57.30074593 -7.86328125 43.01098633 C-6.22839153 34.34392628 -4.73969648 25.65935385 -3.34375 16.95068359 C-3.19550781 16.03625488 -3.04726562 15.12182617 -2.89453125 14.1796875 C-2.76925049 13.39319824 -2.64396973 12.60670898 -2.51489258 11.79638672 C-1.78634408 7.83963258 -0.89153252 3.92279668 0 0 Z " fill="#020202" transform="translate(92,42)"/>
</svg>
